<svg width="136" height="31" viewBox="0 0 136 31" fill="none" xmlns="http://www.w3.org/2000/svg">
<g clip-path="url(#clip0)">
<path fill-rule="evenodd" clip-rule="evenodd" d="M15.3419 0.0867008C18.4853 0.0121626 21.5734 0.922382 24.1739 2.68995C26.7744 4.45751 28.7573 6.99395 29.845 9.94427C30.9328 12.8946 31.071 16.1112 30.2403 19.144C29.8727 20.4861 28.4866 21.2761 27.1445 20.9085C25.8024 20.5409 25.0123 19.1548 25.38 17.8127C25.933 15.7935 25.841 13.6518 25.1168 11.6875C24.3926 9.72315 23.0724 8.03446 21.3411 6.85771C19.6098 5.68095 17.554 5.075 15.4613 5.12462C13.3687 5.17424 11.3439 5.87695 9.67026 7.13445C7.99666 8.39195 6.758 10.1413 6.12769 12.1378C5.49738 14.1342 5.50696 16.2778 6.1551 18.2686C6.80323 20.2593 8.05748 21.9976 9.74226 23.24C11.427 24.4825 13.458 25.1671 15.5511 25.198C16.9425 25.2186 18.0538 26.3632 18.0332 27.7546C18.0127 29.1461 16.8681 30.2574 15.4766 30.2368C12.3327 30.1904 9.28188 29.162 6.75125 27.2958C4.22062 25.4295 2.33679 22.8187 1.36332 19.8287C0.389861 16.8387 0.37547 13.6192 1.32216 10.6206C2.26886 7.62203 4.12928 4.99447 6.64312 3.10564L8.15669 5.12004L6.64312 3.10564C9.15696 1.2168 12.1984 0.161239 15.3419 0.0867008Z" fill="#121920"/>
<path d="M27.0393 24.9706C27.0393 27.0804 25.329 28.7908 23.2191 28.7908C21.1093 28.7908 19.3989 27.0804 19.3989 24.9706C19.3989 22.8608 21.1093 21.1504 23.2191 21.1504C25.329 21.1504 27.0393 22.8608 27.0393 24.9706Z" fill="#F95A59"/>
<path fill-rule="evenodd" clip-rule="evenodd" d="M61.3726 24.1173H56.3929L55.6893 23.1971C54.715 23.576 53.8489 23.8466 53.0912 24.0631C52.3334 24.2255 51.5215 24.3338 50.6013 24.3338C47.5702 24.3338 45.1886 23.576 43.5106 22.1145C41.7244 20.599 40.8584 18.2715 40.8584 15.2945C40.8584 12.2634 41.6703 9.93591 43.24 8.36622C44.8638 6.79653 47.2995 5.98462 50.6013 5.98462C53.7948 5.98462 56.2305 6.85066 57.9085 8.5286C59.3699 9.99004 60.0736 11.8845 60.0736 14.1578C60.0736 15.8358 60.0194 17.0807 59.8571 17.8385C59.6406 19.0293 59.0993 20.166 58.3415 21.1944L61.3726 24.1173ZM55.6893 15.1321C55.6893 13.5083 55.3645 12.2093 54.6609 11.1808C53.7948 9.88178 52.3875 9.23226 50.5472 9.23226C48.8151 9.23226 47.4619 9.7194 46.5959 10.7478C45.7299 11.7221 45.2968 13.1835 45.2968 15.078C45.2968 17.189 45.784 18.7587 46.8124 19.7329C47.7326 20.599 49.0857 21.032 50.8719 21.032C52.4958 21.032 53.6866 20.5449 54.4985 19.5706C55.3104 18.5421 55.6893 17.0807 55.6893 15.1321Z" fill="#F95A59"/>
<path fill-rule="evenodd" clip-rule="evenodd" d="M80.1553 18.5422C80.1553 20.1119 79.614 21.411 78.5856 22.4935C77.5572 23.576 76.2581 24.0632 74.6343 24.0632H62.185V20.8697H72.5233C73.227 20.8697 73.8224 20.7073 74.2554 20.3825C74.7967 20.0036 75.0673 19.5165 75.0673 18.867C75.0673 17.3514 73.9848 16.5936 71.8738 16.5936H66.6776C65.162 16.5936 63.863 16.1065 62.7263 15.1863C61.5896 14.2662 61.0483 13.0754 61.0483 11.6139C61.0483 10.0442 61.5896 8.74517 62.7263 7.77088C63.8088 6.79659 65.2703 6.30945 67.1106 6.30945H79.0727V9.34057H68.4638C67.9766 9.34057 67.4895 9.55708 67.0565 9.93597C66.5152 10.3149 66.2987 10.802 66.2987 11.3433C66.2987 11.9387 66.5152 12.48 67.0023 12.8588C67.4895 13.2919 68.0308 13.4542 68.6803 13.4542H74.4178C76.204 13.4542 77.6113 13.9414 78.6397 14.8616C79.6681 15.7817 80.1553 17.0266 80.1553 18.5422Z" fill="#F95A59"/>
<path fill-rule="evenodd" clip-rule="evenodd" d="M100.615 15.1322C100.615 18.5963 99.6408 21.0321 97.7464 22.5476C96.1767 23.7384 93.9034 24.3338 90.9805 24.3338C87.6787 24.3338 85.243 23.6302 83.6733 22.277C81.9412 20.7614 81.0752 18.3257 81.0752 14.9698C81.0752 12.2093 81.833 10.0442 83.4027 8.52867C85.0806 6.85073 87.5705 6.03882 90.9264 6.03882C94.607 6.03882 97.151 6.85073 98.6666 8.42042C99.9656 9.82773 100.615 12.0469 100.615 15.1322ZM96.0684 15.0239C96.0684 13.2919 95.6354 11.8846 94.8235 10.8561C93.9034 9.71947 92.496 9.12407 90.7098 9.12407C88.9236 9.12407 87.5705 9.71947 86.6503 10.9644C85.8925 11.9928 85.5136 13.346 85.5136 14.9698C85.5136 16.8643 85.8384 18.2716 86.4338 19.1917C87.2998 20.4367 88.8154 21.0862 91.1429 21.0862C93.0914 21.0862 94.4446 20.4908 95.2024 19.2459C95.7978 18.3798 96.0684 16.9184 96.0684 15.0239Z" fill="#F95A59"/>
<path fill-rule="evenodd" clip-rule="evenodd" d="M118.423 16.6478H106.19V24.0091H101.806V13.1295C101.806 12.48 101.914 11.7222 102.185 10.9103C102.672 9.44883 103.592 8.36628 104.945 7.6085C106.515 6.74247 109.113 6.30945 112.685 6.30945C120.317 6.30945 127.949 6.30945 135.581 6.30945V9.28645H128.978V24.0091H124.864V9.28645C120.642 9.28645 116.637 9.23232 112.415 9.23232C110.791 9.23232 109.654 9.34057 109.005 9.50296C107.868 9.77359 107.11 10.4231 106.623 11.3433C106.244 12.0469 106.082 12.8047 106.082 13.6708H118.423V16.6478Z" fill="#F95A59"/>
</g>
<defs>
<clipPath id="clip0">
<rect width="135.041" height="30.3184" fill="white" transform="translate(0.540039)"/>
</clipPath>
</defs>
</svg>
