<svg width="95" height="19" viewBox="0 0 95 19" fill="none" xmlns="http://www.w3.org/2000/svg">
<path fill-rule="evenodd" clip-rule="evenodd" d="M21.0208 17.8842H16.1093L15.4153 16.9766C14.4543 17.3503 13.6002 17.6173 12.8528 17.8308C12.1054 17.991 11.3046 18.0977 10.397 18.0977C7.40742 18.0977 5.05845 17.3503 3.40349 15.9089C1.64177 14.4141 0.787598 12.1185 0.787598 9.18234C0.787598 6.19274 1.58838 3.89715 3.13657 2.34897C4.73814 0.800785 7.14049 0 10.397 0C13.5468 0 15.9491 0.854171 17.6041 2.50913C19.0455 3.95054 19.7395 5.81904 19.7395 8.06124C19.7395 9.71619 19.6861 10.9441 19.526 11.6915C19.3124 12.8659 18.7786 13.987 18.0312 15.0014L21.0208 17.8842ZM15.4153 9.02218C15.4153 7.42061 15.095 6.13935 14.4009 5.12502C13.5468 3.84377 12.1587 3.20314 10.3436 3.20314C8.63529 3.20314 7.30065 3.68361 6.44648 4.69794C5.59231 5.65888 5.16522 7.10029 5.16522 8.96879C5.16522 11.0508 5.64569 12.599 6.66002 13.56C7.56758 14.4141 8.90222 14.8412 10.6639 14.8412C12.2655 14.8412 13.44 14.3607 14.2408 13.3998C15.0416 12.3855 15.4153 10.9441 15.4153 9.02218Z" fill="currentColor"/>
<path fill-rule="evenodd" clip-rule="evenodd" d="M39.5458 12.3855C39.5458 13.9337 39.012 15.2149 37.9976 16.2826C36.9833 17.3503 35.7021 17.8308 34.1005 17.8308H21.8218V14.6811H32.0184C32.7125 14.6811 33.2997 14.5209 33.7268 14.2006C34.2606 13.8269 34.5276 13.3464 34.5276 12.7058C34.5276 11.211 33.4599 10.4636 31.3778 10.4636H26.2528C24.758 10.4636 23.4767 9.98311 22.3556 9.07556C21.2345 8.168 20.7007 6.99352 20.7007 5.55211C20.7007 4.00392 21.2345 2.72267 22.3556 1.76172C23.4234 0.800783 24.8648 0.320312 26.6799 0.320312H38.4781V3.30991H28.0145C27.534 3.30991 27.0536 3.52345 26.6265 3.89715C26.0926 4.27085 25.8791 4.75132 25.8791 5.28518C25.8791 5.87242 26.0926 6.40628 26.5731 6.77998C27.0536 7.20706 27.5874 7.36722 28.2281 7.36722H33.8869C35.6487 7.36722 37.0367 7.84769 38.051 8.75524C39.0653 9.6628 39.5458 10.8907 39.5458 12.3855Z" fill="currentColor"/>
<path fill-rule="evenodd" clip-rule="evenodd" d="M59.7258 9.02226C59.7258 12.4389 58.7649 14.8413 56.8964 16.3361C55.3482 17.5106 53.106 18.0978 50.2232 18.0978C46.9667 18.0978 44.5643 17.4038 43.0161 16.0692C41.3078 14.5744 40.4536 12.172 40.4536 8.8621C40.4536 6.13943 41.201 4.004 42.7492 2.50921C44.4041 0.854252 46.8599 0.0534668 50.1698 0.0534668C53.8 0.0534668 56.3092 0.854252 57.804 2.40244C59.0852 3.79046 59.7258 5.97927 59.7258 9.02226ZM55.2414 8.91549C55.2414 7.20714 54.8144 5.81912 54.0136 4.80479C53.106 3.68369 51.718 3.09645 49.9563 3.09645C48.1945 3.09645 46.8599 3.68369 45.9523 4.91156C45.2049 5.92589 44.8312 7.26053 44.8312 8.8621C44.8312 10.7306 45.1515 12.1186 45.7388 13.0262C46.593 14.254 48.0878 14.8947 50.3833 14.8947C52.3052 14.8947 53.6399 14.3074 54.3873 13.0796C54.9745 12.2254 55.2414 10.784 55.2414 8.91549Z" fill="currentColor"/>
<path fill-rule="evenodd" clip-rule="evenodd" d="M77.2893 10.517H65.2241V17.7774H60.8999V7.04691C60.8999 6.40628 61.0067 5.65888 61.2736 4.85809C61.7541 3.41668 62.6616 2.34897 63.9963 1.60157C65.5445 0.747398 68.107 0.320312 71.6304 0.320312C79.1578 0.320312 86.6852 0.320312 94.2126 0.320312V3.25652H87.6995V17.7774H83.6422V3.25652C79.4781 3.25652 75.5276 3.20314 71.3635 3.20314C69.7619 3.20314 68.6408 3.30991 68.0002 3.47007C66.8791 3.73699 66.1317 4.37762 65.6512 5.28518C65.2775 5.97919 65.1174 6.72659 65.1174 7.58076H77.2893V10.517Z" fill="currentColor"/>
<rect x="0" y="0" width="95" height="19"  pointer-events="visibleFill" cursor="pointer"/>
</svg>
