<svg class="card__svg" width="24" height="24" viewBox="0 0 24 24" xmlns="http://www.w3.org/2000/svg">
<path d="M21.9245 8.71772L16.1897 7.88579L13.6265 2.71455C13.1673 1.79279 11.8366 1.78107 11.3735 2.71455L8.81029 7.88579L3.07553 8.71772C2.04712 8.86613 1.63497 10.1277 2.38077 10.8503L6.52973 14.8732L5.54842 20.5561C5.37179 21.5833 6.45908 22.3527 7.36973 21.8723L12.5 19.1891L17.6303 21.8723C18.5409 22.3488 19.6282 21.5833 19.4516 20.5561L18.4703 14.8732L22.6192 10.8503C23.365 10.1277 22.9529 8.86613 21.9245 8.71772ZM16.4488 14.217L17.3791 19.6226L12.5 17.0722L7.62094 19.6226L8.55122 14.217L4.60244 10.3894L10.0585 9.60042L12.5 4.67915L14.9415 9.60042L20.3976 10.3894L16.4488 14.217Z" />
<path d="M12.5 3.01883L15.5712 8.29172L21.535 9.58317L17.4693 14.1334L18.084 20.2045L12.5 17.7438L6.91604 20.2045L7.53073 14.1334L3.46496 9.58317L9.42882 8.29172L12.5 3.01883Z" fill="none"/>
</svg>
