<svg width="25" height="24" viewBox="0 0 25 24" xmlns="http://www.w3.org/2000/svg">
    <path fill-rule="evenodd" clip-rule="evenodd" d="M12.4995 16.05C12.6585 16.05 12.8175 16.088 12.9625 16.163L16.7315 18.133L16.0145 13.976C15.9575 13.65 16.0665 13.318 16.3045 13.087L19.3405 10.151L15.1375 9.539C14.8125 9.492 14.5315 9.289 14.3855 8.995L12.4995 5.201L10.6135 8.995C10.4675 9.289 10.1865 9.492 9.86155 9.539L5.65855 10.151L8.69455 13.087C8.93255 13.318 9.04155 13.65 8.98455 13.976L8.26755 18.133L12.0365 16.163C12.1815 16.088 12.3405 16.05 12.4995 16.05ZM18.0615 20.955C17.9025 20.955 17.7435 20.918 17.5985 20.842L12.4995 18.178L7.40055 20.842C7.06255 21.018 6.65455 20.987 6.34955 20.763C6.04155 20.539 5.88855 20.16 5.95255 19.785L6.92455 14.157L2.80455 10.172C2.52955 9.907 2.43155 9.509 2.54855 9.146C2.66455 8.783 2.97855 8.519 3.35555 8.464L9.05655 7.636L11.6035 2.51C11.9415 1.83 13.0575 1.83 13.3955 2.51L15.9425 7.636L21.6435 8.464C22.0205 8.519 22.3345 8.783 22.4505 9.146C22.5675 9.509 22.4695 9.907 22.1945 10.172L18.0745 14.157L19.0465 19.785C19.1105 20.16 18.9575 20.539 18.6495 20.763C18.4765 20.891 18.2695 20.955 18.0615 20.955Z"/>
</svg>
