<svg width="25" height="24" viewBox="0 0 25 24" fill="none" xmlns="http://www.w3.org/2000/svg">
<path d="M21.9269 8.71768L16.1922 7.88576L13.629 2.71452C13.1697 1.79276 11.8391 1.78104 11.3759 2.71452L8.81273 7.88576L3.07797 8.71768C2.04956 8.8661 1.63741 10.1277 2.38321 10.8502L6.53217 14.8732L5.55087 20.5561C5.37423 21.5833 6.46152 22.3527 7.37217 21.8723L12.5024 19.189L17.6327 21.8723C18.5434 22.3488 19.6307 21.5833 19.454 20.5561L18.4727 14.8732L22.6217 10.8502C23.3675 10.1277 22.9553 8.8661 21.9269 8.71768ZM16.4512 14.217L17.3815 19.6226L12.5024 17.0721L7.62338 19.6226L8.55366 14.217L4.60489 10.3894L10.061 9.60039L12.5024 4.67912L14.9439 9.60039L20.4 10.3894L16.4512 14.217Z" fill="currentColor"/>
<circle cx="12" cy="12" r="12"  pointer-events="visibleFill" cursor="pointer" />
</svg>
