<svg width="40" height="40" viewBox="0 0 40 40" fill="none" xmlns="http://www.w3.org/2000/svg">
<circle cx="20" cy="20" r="20" fill="#EBEBF1"/>
<mask id="mask0" mask-type="alpha" maskUnits="userSpaceOnUse" x="0" y="0" width="40" height="40">
<circle cx="20" cy="20" r="20" fill="#AFD2C8"/>
</mask>
<g mask="url(#mask0)">
<path d="M31.8342 33.4977V36.9498C31.8342 37.2725 31.5725 37.5342 31.2498 37.5342C30.9271 37.5342 30.6654 37.2725 30.6654 36.9498V33.4977C30.6654 30.8098 28.4903 28.6346 25.8023 28.6347C24.5304 28.6347 23.3764 27.9867 22.7152 26.9014C22.5474 26.6257 22.6347 26.2661 22.9104 26.0982C23.186 25.9303 23.5455 26.0177 23.7135 26.2934C24.1607 27.0276 24.9415 27.4659 25.8023 27.4659C29.136 27.4657 31.8342 30.1636 31.8342 33.4977ZM21.636 27.6396C21.7047 27.9549 21.5048 28.2663 21.1895 28.335C19.6515 28.6701 18.0872 28.3347 16.8418 27.4846C15.6089 28.8058 13.98 28.6347 14.1981 28.6347C11.5102 28.6346 9.33493 30.8096 9.33493 33.4977V36.9498C9.33493 37.2725 9.07327 37.5342 8.75054 37.5342C8.4278 37.5342 8.16614 37.2725 8.16614 36.9498V33.4977C8.16614 30.164 10.8638 27.4659 14.1979 27.4659C15.5466 27.4659 16.6399 26.3793 16.6399 25.0303V24.8763C14.0891 23.6566 12.2986 21.0935 12.1895 18.1088C11.1398 17.8564 10.3576 16.9168 10.3576 15.799V12.7694C10.3257 11.2865 10.5459 7.57238 13.2539 4.96202C16.5978 1.73863 21.9602 1.94338 25.9033 3.84158C26.2876 4.02676 26.346 4.546 26.0268 4.8149C28.0244 5.30214 29.7469 6.53011 30.8535 8.28754C30.9106 8.37805 31.0152 8.52013 30.9879 8.7468C30.971 8.88786 30.929 9.00722 30.8203 9.11753C30.108 9.83985 29.7158 10.797 29.7158 11.8128V15.7991C29.7158 16.1218 29.4542 16.3835 29.1314 16.3835C28.8087 16.3835 28.547 16.1218 28.547 15.7991V11.8128C28.547 10.6413 28.9473 9.52931 29.6824 8.63606C28.5619 7.03364 26.8138 6.00305 24.8368 5.79135L23.8097 5.68134C23.2091 5.61706 23.0912 4.78962 23.6494 4.55988L24.1166 4.36754C18.0325 2.24654 11.5264 4.6032 11.5264 12.763V15.799C11.5264 16.2627 11.7934 16.6657 12.1838 16.8681V13.0795C12.1838 10.8239 14.019 8.98874 16.2746 8.98874H23.7257C25.9813 8.98874 27.8165 10.8238 27.8165 13.0793V17.8643C27.8165 22.9467 22.8499 26.807 17.7962 25.3192C17.7633 25.7362 17.6595 26.1386 17.4904 26.5126C18.4735 27.1877 19.715 27.46 20.9406 27.193C21.2559 27.1243 21.5673 27.3242 21.636 27.6396ZM20.0001 24.4674C23.6656 24.4674 26.6477 21.4854 26.6477 17.8199V13.0793C26.6477 11.4683 25.3369 10.1575 23.7257 10.1575H16.2746C14.6634 10.1575 13.3526 11.4683 13.3526 13.0795V17.8199C13.3526 21.4854 16.3346 24.4674 20.0001 24.4674ZM25.9172 34.5391H24.164C23.8412 34.5391 23.5796 34.8008 23.5796 35.1235C23.5796 35.4463 23.8412 35.7079 24.164 35.7079H25.9172C26.2399 35.7079 26.5016 35.4463 26.5016 35.1235C26.5016 34.8008 26.2399 34.5391 25.9172 34.5391Z" fill="currentColor"/>
</g>
</svg>
